<?xml version="1.0" standalone="no"?><!DOCTYPE svg PUBLIC "-//W3C//DTD SVG 1.1//EN" "http://www.w3.org/Graphics/SVG/1.1/DTD/svg11.dtd"><svg t="1671859982569" class="icon" viewBox="0 0 1024 1024" version="1.1" xmlns="http://www.w3.org/2000/svg" p-id="6323" xmlns:xlink="http://www.w3.org/1999/xlink" width="200" height="200"><path d="M787.6 951.7H236c-35.7 0-64.7-29-64.7-64.7V131.2c0-35.7 29-64.7 64.7-64.7h551.6c35.7 0 64.7 29 64.7 64.7V887c0 35.7-29 64.7-64.7 64.7zM236 86.5c-24.6 0-44.7 20.1-44.7 44.7V887c0 24.6 20.1 44.7 44.7 44.7h551.6c24.6 0 44.7-20.1 44.7-44.7V131.2c0-24.6-20.1-44.7-44.7-44.7H236z" fill="#322B2C" p-id="6324"></path><path d="M789.3 941.7h-555c-29.2 0-53-23.9-53-53V129.5c0-29.2 23.8-53 53-53h555c29.2 0 53 23.8 53 53v759.2c0 29.1-23.8 53-53 53z" fill="#CCE6E9" p-id="6325"></path><path d="M664.7 664.6c2.9-79.8-19.6-290-24.1-331.6-0.3-4.7-0.4-7.2-0.4-7.2 0-70.1-56.8-126.9-126.9-126.9h-0.4c-70.1 0-126.9 56.8-126.9 126.9 0 0-0.1 2.5-0.4 7.2-4.6 41.7-27.1 251.8-24.1 331.6-0.1 1-0.2 2-0.3 2.9 0 86.8 67.9 151.8 151.8 151.8h0.4c83.8 0 151.8-64.9 151.8-151.8-0.3-0.9-0.4-1.9-0.5-2.9z" fill="#C4DEE0" p-id="6326"></path><path d="M513.3 696.4m-55.7 0a55.7 55.7 0 1 0 111.4 0 55.7 55.7 0 1 0-111.4 0Z" fill="#F0BA93" p-id="6327"></path><path d="M314.4 325.6h-99c-5.8 0-10.5-4.7-10.5-10.5v-0.7c0-5.8 4.7-10.5 10.5-10.5h99c5.8 0 10.5 4.7 10.5 10.5v0.7c0 5.8-4.7 10.5-10.5 10.5zM314.4 372.1h-99c-5.8 0-10.5-4.7-10.5-10.5v-0.7c0-5.8 4.7-10.5 10.5-10.5h99c5.8 0 10.5 4.7 10.5 10.5v0.7c0 5.8-4.7 10.5-10.5 10.5zM314.4 418.5h-99c-5.8 0-10.5-4.7-10.5-10.5v-0.7c0-5.8 4.7-10.5 10.5-10.5h99c5.8 0 10.5 4.7 10.5 10.5v0.7c0 5.8-4.7 10.5-10.5 10.5zM314.4 465h-99c-5.8 0-10.5-4.7-10.5-10.5v-0.7c0-5.8 4.7-10.5 10.5-10.5h99c5.8 0 10.5 4.7 10.5 10.5v0.7c0 5.7-4.7 10.5-10.5 10.5zM314.4 511.4h-99c-5.8 0-10.5-4.7-10.5-10.5v-0.7c0-5.8 4.7-10.5 10.5-10.5h99c5.8 0 10.5 4.7 10.5 10.5v0.7c0 5.8-4.7 10.5-10.5 10.5zM314.4 557.8h-99c-5.8 0-10.5-4.7-10.5-10.5v-0.7c0-5.8 4.7-10.5 10.5-10.5h99c5.8 0 10.5 4.7 10.5 10.5v0.7c0 5.8-4.7 10.5-10.5 10.5zM314.4 604.3h-99c-5.8 0-10.5-4.7-10.5-10.5v-0.7c0-5.8 4.7-10.5 10.5-10.5h99c5.8 0 10.5 4.7 10.5 10.5v0.7c0 5.8-4.7 10.5-10.5 10.5zM314.4 661.6h-99c-5.8 0-10.5-4.7-10.5-10.5v-0.7c0-5.8 4.7-10.5 10.5-10.5h99c5.8 0 10.5 4.7 10.5 10.5v0.7c0 5.7-4.7 10.5-10.5 10.5z" fill="#F0BA93" p-id="6328"></path><path d="M808.3 325.6h-99c-5.8 0-10.5-4.7-10.5-10.5v-0.7c0-5.8 4.7-10.5 10.5-10.5h99c5.8 0 10.5 4.7 10.5 10.5v0.7c0 5.8-4.8 10.5-10.5 10.5zM808.3 372.1h-99c-5.8 0-10.5-4.7-10.5-10.5v-0.7c0-5.8 4.7-10.5 10.5-10.5h99c5.8 0 10.5 4.7 10.5 10.5v0.7c0 5.8-4.8 10.5-10.5 10.5zM808.3 418.5h-99c-5.8 0-10.5-4.7-10.5-10.5v-0.7c0-5.8 4.7-10.5 10.5-10.5h99c5.8 0 10.5 4.7 10.5 10.5v0.7c0 5.8-4.8 10.5-10.5 10.5zM808.3 465h-99c-5.8 0-10.5-4.7-10.5-10.5v-0.7c0-5.8 4.7-10.5 10.5-10.5h99c5.8 0 10.5 4.7 10.5 10.5v0.7c0 5.7-4.8 10.5-10.5 10.5zM808.3 511.4h-99c-5.8 0-10.5-4.7-10.5-10.5v-0.7c0-5.8 4.7-10.5 10.5-10.5h99c5.8 0 10.5 4.7 10.5 10.5v0.7c0 5.8-4.8 10.5-10.5 10.5zM808.3 557.8h-99c-5.8 0-10.5-4.7-10.5-10.5v-0.7c0-5.8 4.7-10.5 10.5-10.5h99c5.8 0 10.5 4.7 10.5 10.5v0.7c0 5.8-4.8 10.5-10.5 10.5zM808.3 604.3h-99c-5.8 0-10.5-4.7-10.5-10.5v-0.7c0-5.8 4.7-10.5 10.5-10.5h99c5.8 0 10.5 4.7 10.5 10.5v0.7c0 5.8-4.8 10.5-10.5 10.5zM808.3 661.6h-99c-5.8 0-10.5-4.7-10.5-10.5v-0.7c0-5.8 4.7-10.5 10.5-10.5h99c5.8 0 10.5 4.7 10.5 10.5v0.7c0 5.7-4.8 10.5-10.5 10.5z" fill="#F0BA93" p-id="6329"></path></svg>