<?xml version="1.0" standalone="no"?><!DOCTYPE svg PUBLIC "-//W3C//DTD SVG 1.1//EN" "http://www.w3.org/Graphics/SVG/1.1/DTD/svg11.dtd"><svg t="1671863786935" class="icon" viewBox="0 0 1024 1024" version="1.1" xmlns="http://www.w3.org/2000/svg" p-id="6468" xmlns:xlink="http://www.w3.org/1999/xlink" width="200" height="200"><path d="M507.82 305.547h87.576v46.095H507.82zM682.972 305.547h87.598v46.095h-87.598z" fill="#333333" p-id="6469"></path><path d="M927.289 920.453V351.642h-0.231c0.231-3.688 0.231-7.606 0.231-11.524 0-129.527-59.923-232.088-138.285-241.308-3.687-0.46-7.606-0.691-11.524-0.691H247.388c-3.918 0-7.837 0.231-11.524 0.691C157.273 108.03 97.58 210.592 97.58 340.118c0 135.75 65.685 241.998 149.809 241.998 3.918 0 7.837-0.231 11.524-0.692v0.692h92.19v345.712h46.326c0-6.685 20.742-23.047 59.463-23.047 38.489 0 59.461 16.363 59.461 23.047h57.849c0-6.685 20.743-23.047 59.463-23.047 38.489 0 59.232 16.363 59.232 23.047h69.833c0-6.685 20.743-23.047 59.463-23.047 35.262 0 55.774 13.828 59.001 21.203v1.844h46.555c0.001-2.534-0.23-4.84-0.46-7.375zM351.102 536.022h-14.52a187.874 187.874 0 0 0 14.52-19.591v19.591z m-103.714 0c-56.236 0-103.714-89.655-103.714-195.903s47.478-195.903 103.714-195.903 103.714 89.655 103.714 195.903-47.478 195.903-103.714 195.903z m574.804 322.664c-42.408 0-77.67 14.751-94.265 37.568-16.824-22.817-51.857-37.568-94.263-37.568-38.029 0-70.065 11.754-88.272 30.423-18.668-18.668-50.705-30.423-88.501-30.423-22.587 0-42.869 4.148-59.694 11.524V351.642h23.047v-46.095h-24.661c-5.531-66.838-27.427-123.995-59.001-161.332H777.48c50.013 0 93.111 70.985 102.1 161.332h-21.434v46.095H881.194v518.107c-16.825-7.145-36.876-11.063-59.002-11.063z" fill="#333333" p-id="6470"></path></svg>